<svg width="32" height="34" viewBox="0 0 32 34" fill="none" xmlns="http://www.w3.org/2000/svg">
<path d="M10.4214 0.299999V15H8.34245V2.127H5.02445V0.299999H10.4214ZM22.6249 7.293C23.4649 7.615 24.1089 8.077 24.5569 8.679C25.0049 9.281 25.2289 10.002 25.2289 10.842C25.2289 11.724 24.9909 12.494 24.5149 13.152C24.0389 13.796 23.3599 14.293 22.4779 14.643C21.5959 14.993 20.5599 15.168 19.3699 15.168C18.1939 15.168 17.1649 14.993 16.2829 14.643C15.4149 14.293 14.7429 13.796 14.2669 13.152C13.7909 12.494 13.5529 11.724 13.5529 10.842C13.5529 10.002 13.7699 9.281 14.2039 8.679C14.6519 8.077 15.2959 7.615 16.1359 7.293C15.4639 6.971 14.9529 6.544 14.6029 6.012C14.2529 5.48 14.0779 4.85 14.0779 4.122C14.0779 3.31 14.2949 2.603 14.7289 2.001C15.1769 1.399 15.7999 0.936999 16.5979 0.614999C17.3959 0.293 18.3199 0.132 19.3699 0.132C20.4339 0.132 21.3649 0.293 22.1629 0.614999C22.9749 0.936999 23.5979 1.399 24.0319 2.001C24.4799 2.603 24.7039 3.31 24.7039 4.122C24.7039 4.836 24.5219 5.466 24.1579 6.012C23.8079 6.544 23.2969 6.971 22.6249 7.293ZM19.3699 1.833C18.3759 1.833 17.5919 2.05 17.0179 2.484C16.4439 2.904 16.1569 3.478 16.1569 4.206C16.1569 4.934 16.4369 5.508 16.9969 5.928C17.5709 6.348 18.3619 6.558 19.3699 6.558C20.3919 6.558 21.1899 6.348 21.7639 5.928C22.3519 5.508 22.6459 4.934 22.6459 4.206C22.6459 3.478 22.3449 2.904 21.7429 2.484C21.1549 2.05 20.3639 1.833 19.3699 1.833ZM19.3699 13.467C20.5319 13.467 21.4489 13.229 22.1209 12.753C22.7929 12.263 23.1289 11.605 23.1289 10.779C23.1289 9.967 22.7929 9.33 22.1209 8.868C21.4489 8.392 20.5319 8.154 19.3699 8.154C18.2079 8.154 17.2979 8.392 16.6399 8.868C15.9819 9.33 15.6529 9.967 15.6529 10.779C15.6529 11.605 15.9819 12.263 16.6399 12.753C17.2979 13.229 18.2079 13.467 19.3699 13.467ZM5.75299 33.12C4.69299 33.12 3.73799 32.89 2.88799 32.43C2.03799 31.96 1.36799 31.315 0.877988 30.495C0.397988 29.675 0.157988 28.76 0.157988 27.75C0.157988 26.74 0.397988 25.825 0.877988 25.005C1.36799 24.185 2.03799 23.545 2.88799 23.085C3.73799 22.615 4.69299 22.38 5.75299 22.38C6.80299 22.38 7.75299 22.615 8.60299 23.085C9.45299 23.545 10.118 24.185 10.598 25.005C11.078 25.815 11.318 26.73 11.318 27.75C11.318 28.77 11.078 29.69 10.598 30.51C10.118 31.32 9.45299 31.96 8.60299 32.43C7.75299 32.89 6.80299 33.12 5.75299 33.12ZM5.75299 31.785C6.52299 31.785 7.21299 31.61 7.82299 31.26C8.44299 30.91 8.92799 30.43 9.27799 29.82C9.63799 29.2 9.81799 28.51 9.81799 27.75C9.81799 26.99 9.63799 26.305 9.27799 25.695C8.92799 25.075 8.44299 24.59 7.82299 24.24C7.21299 23.89 6.52299 23.715 5.75299 23.715C4.98299 23.715 4.28299 23.89 3.65299 24.24C3.03299 24.59 2.54299 25.075 2.18299 25.695C1.83299 26.305 1.65799 26.99 1.65799 27.75C1.65799 28.51 1.83299 29.2 2.18299 29.82C2.54299 30.43 3.03299 30.91 3.65299 31.26C4.28299 31.61 4.98299 31.785 5.75299 31.785ZM18.3056 33.12C17.2556 33.12 16.3056 32.89 15.4556 32.43C14.6156 31.96 13.9556 31.32 13.4756 30.51C12.9956 29.69 12.7556 28.77 12.7556 27.75C12.7556 26.73 12.9956 25.815 13.4756 25.005C13.9556 24.185 14.6206 23.545 15.4706 23.085C16.3206 22.615 17.2706 22.38 18.3206 22.38C19.1406 22.38 19.8906 22.52 20.5706 22.8C21.2506 23.07 21.8306 23.475 22.3106 24.015L21.3356 24.96C20.5456 24.13 19.5606 23.715 18.3806 23.715C17.6006 23.715 16.8956 23.89 16.2656 24.24C15.6356 24.59 15.1406 25.075 14.7806 25.695C14.4306 26.305 14.2556 26.99 14.2556 27.75C14.2556 28.51 14.4306 29.2 14.7806 29.82C15.1406 30.43 15.6356 30.91 16.2656 31.26C16.8956 31.61 17.6006 31.785 18.3806 31.785C19.5506 31.785 20.5356 31.365 21.3356 30.525L22.3106 31.47C21.8306 32.01 21.2456 32.42 20.5556 32.7C19.8756 32.98 19.1256 33.12 18.3056 33.12ZM26.4183 23.805H22.8183V22.5H31.5033V23.805H27.9033V33H26.4183V23.805Z" fill="#786F6F"/>
</svg>
