<svg width="78" height="78" viewBox="0 0 78 78" fill="none" xmlns="http://www.w3.org/2000/svg">
<circle cx="39" cy="39" r="38" stroke="#DEDEDE" stroke-width="2"/>
<path d="M52.2022 54.9H56.6V59H39C26.8494 59 17 49.8221 17 38.5C17 27.1779 26.8494 18 39 18C51.1506 18 61 27.1779 61 38.5C61.0028 41.6828 60.2091 44.8223 58.6819 47.6692C57.1546 50.5161 54.936 52.9919 52.2022 54.9ZM39 34.4C40.1669 34.4 41.2861 33.968 42.1113 33.1991C42.9364 32.4302 43.4 31.3874 43.4 30.3C43.4 29.2126 42.9364 28.1698 42.1113 27.4009C41.2861 26.632 40.1669 26.2 39 26.2C37.833 26.2 36.7139 26.632 35.8887 27.4009C35.0636 28.1698 34.6 29.2126 34.6 30.3C34.6 31.3874 35.0636 32.4302 35.8887 33.1991C36.7139 33.968 37.833 34.4 39 34.4ZM30.2 42.6C31.367 42.6 32.4861 42.168 33.3113 41.3991C34.1364 40.6302 34.6 39.5874 34.6 38.5C34.6 37.4126 34.1364 36.3698 33.3113 35.6009C32.4861 34.832 31.367 34.4 30.2 34.4C29.033 34.4 27.9139 34.832 27.0887 35.6009C26.2636 36.3698 25.8 37.4126 25.8 38.5C25.8 39.5874 26.2636 40.6302 27.0887 41.3991C27.9139 42.168 29.033 42.6 30.2 42.6ZM47.8 42.6C48.9669 42.6 50.0861 42.168 50.9113 41.3991C51.7364 40.6302 52.2 39.5874 52.2 38.5C52.2 37.4126 51.7364 36.3698 50.9113 35.6009C50.0861 34.832 48.9669 34.4 47.8 34.4C46.633 34.4 45.5139 34.832 44.6887 35.6009C43.8636 36.3698 43.4 37.4126 43.4 38.5C43.4 39.5874 43.8636 40.6302 44.6887 41.3991C45.5139 42.168 46.633 42.6 47.8 42.6ZM39 50.8C40.1669 50.8 41.2861 50.368 42.1113 49.5991C42.9364 48.8302 43.4 47.7874 43.4 46.7C43.4 45.6126 42.9364 44.5698 42.1113 43.8009C41.2861 43.032 40.1669 42.6 39 42.6C37.833 42.6 36.7139 43.032 35.8887 43.8009C35.0636 44.5698 34.6 45.6126 34.6 46.7C34.6 47.7874 35.0636 48.8302 35.8887 49.5991C36.7139 50.368 37.833 50.8 39 50.8Z" fill="#C1301D"/>
</svg>
